
<svg width="1272" height="173" viewBox="0 0 1272 173" fill="none" xmlns="http://www.w3.org/2000/svg">
<g clip-path="url(#clip0_279_373)">
<mask id="mask0_279_373" style="mask-type:luminance" maskUnits="userSpaceOnUse" x="0" y="0" width="184" height="137">
<path d="M183.189 0H0.0234375V136.624H183.189V0Z" fill="white"/>
</mask>
<g mask="url(#mask0_279_373)">
<path fill-rule="evenodd" clip-rule="evenodd" d="M125.667 132.742C125.912 134.856 124.206 136.613 122.092 136.613H68.6335C66.5699 136.613 64.9559 134.999 64.9559 132.936V58.4027C64.9559 56.5026 63.5052 54.8885 61.5949 54.5923C50.3373 52.8454 14.1944 43.9987 0.229696 4.86263C-0.587553 2.58455 1.12867 0.0612937 3.52934 0H43.9832C77.4087 1.46083 102.488 22.8421 112.581 51.8953L112.642 51.8341C121.04 76.0451 124.717 119.564 125.667 132.742Z" fill="#0C70F2"/>
<path fill-rule="evenodd" clip-rule="evenodd" d="M183.003 4.22927C169.835 42.1088 142.764 50.8942 127.114 54.1836C125.438 54.439 123.845 53.4379 123.405 51.8238C118.42 34.1917 111.484 24.5277 102.484 16.202C100.962 14.8024 101.023 12.3303 102.78 11.2168C113.312 4.2497 126.317 0.0408625 142.549 0.0204312V0H179.938C182.145 0 183.749 2.17593 183.003 4.22927Z" fill="#0C70F2"/>
</g>
<path d="M247 26.0076V6.28125H350.668V26.0076H310.51V136.214H287.168V26.0076H247.01H247Z" fill="black"/>
<path d="M355.94 136.219V38.7721H378.21V55.015H379.221C380.999 49.3862 384.043 45.0547 388.354 42.0105C392.706 38.9254 397.681 37.3828 403.259 37.3828C404.525 37.3828 405.945 37.4441 407.508 37.5769C409.112 37.6586 410.45 37.8119 411.503 38.0162V59.1421C410.532 58.805 408.99 58.5087 406.875 58.2533C404.801 57.9571 402.789 57.814 400.848 57.814C396.659 57.814 392.9 58.7232 389.559 60.5416C386.26 62.3191 383.655 64.7913 381.755 67.9684C379.855 71.1454 378.894 74.8026 378.894 78.9399V136.229H355.93L355.94 136.219Z" fill="black"/>
<path d="M423.199 136.217V38.7698H446.164V136.217H423.199ZM434.743 24.9378C431.106 24.9378 427.97 23.7324 425.355 21.3215C422.729 18.8697 421.422 15.9277 421.422 12.5054C421.422 9.08319 422.729 6.10023 425.355 3.68934C427.98 1.23759 431.106 0.0117188 434.743 0.0117188C438.38 0.0117188 441.557 1.23759 444.131 3.68934C446.757 6.10023 448.064 9.04232 448.064 12.5054C448.064 15.9685 446.757 18.8697 444.131 21.3215C441.547 23.7324 438.421 24.9378 434.743 24.9378Z" fill="black"/>
<path d="M466.227 172.761V38.773H488.813V54.8831H490.141C491.326 52.5131 493.002 50 495.157 47.3337C497.313 44.6266 500.234 42.3179 503.912 40.4178C507.59 38.4768 512.289 37.4961 517.999 37.4961C525.528 37.4961 532.322 39.4166 538.369 43.2679C544.458 47.0783 549.28 52.7174 552.835 60.2054C556.43 67.6526 558.228 76.7854 558.228 87.6139C558.228 98.4425 556.471 107.412 552.957 114.89C549.443 122.378 544.672 128.088 538.614 132.021C532.567 135.954 525.712 137.916 518.061 137.916C512.483 137.916 507.845 136.986 504.167 135.127C500.49 133.268 497.527 131.02 495.28 128.405C493.083 125.739 491.367 123.226 490.141 120.856H489.191V172.751H466.227V172.761ZM488.752 87.4913C488.752 93.7944 489.641 99.3108 491.418 104.051C493.237 108.791 495.842 112.489 499.223 115.155C502.645 117.781 506.793 119.088 511.655 119.088C516.518 119.088 520.982 117.73 524.404 115.022C527.827 112.274 530.411 108.525 532.148 103.795C533.925 99.0145 534.814 93.5798 534.814 87.4913C534.814 81.4028 533.946 76.0703 532.209 71.3813C530.473 66.6821 527.898 63.0045 524.466 60.3382C521.044 57.6719 516.773 56.3439 511.655 56.3439C506.537 56.3439 502.584 57.6311 499.151 60.2156C495.729 62.8002 493.124 66.4165 491.347 71.0646C489.61 75.7127 488.742 81.1985 488.742 87.5015L488.752 87.4913Z" fill="black"/>
<path d="M597.269 6.28125V136.214H574.305V6.28125H597.269Z" fill="black"/>
<path d="M660.47 138.12C650.703 138.12 642.265 136.087 635.155 132.031C628.096 127.925 622.651 122.132 618.851 114.644C615.041 107.116 613.141 98.2586 613.141 88.0634C613.141 77.8682 615.041 69.2462 618.851 61.6662C622.702 54.0556 628.076 48.1306 634.971 43.9013C641.867 39.6312 649.968 37.4961 659.274 37.4961C665.281 37.4961 670.951 38.4666 676.273 40.4178C681.647 42.3179 686.376 45.2804 690.483 49.2951C694.631 53.3099 697.879 58.4279 700.249 64.6492C702.619 70.8194 703.804 78.1849 703.804 86.7252V93.7637H623.928V78.2871H681.79C681.749 73.8841 680.799 69.9715 678.939 66.5493C677.08 63.076 674.475 60.3484 671.135 58.3666C667.835 56.3746 663.984 55.3836 659.591 55.3836C654.892 55.3836 650.775 56.5278 647.22 58.8059C643.665 61.0431 640.896 64.0056 638.904 67.6832C636.963 71.32 635.962 75.3143 635.922 79.6764V93.1916C635.922 98.8613 636.953 103.724 639.027 107.78C641.101 111.794 643.992 114.89 647.721 117.045C651.439 119.16 655.801 120.222 660.786 120.222C664.127 120.222 667.151 119.752 669.858 118.823C672.565 117.852 674.915 116.432 676.896 114.573C678.888 112.714 680.39 110.405 681.401 107.657L702.844 110.068C701.496 115.738 698.911 120.682 695.101 124.911C691.341 129.1 686.519 132.358 680.635 134.677C674.761 136.966 668.029 138.1 660.459 138.1L660.47 138.12Z" fill="black"/>
<path d="M788.744 136.214L752.07 6.28125H777.385L800.799 101.767H802.004L827.002 6.28125H850.028L875.087 101.828H876.231L899.645 6.28125H924.959L888.285 136.214H865.065L839.056 45.0495H838.045L811.964 136.214H788.744Z" fill="black"/>
<path d="M959.66 79.1084V136.203H936.695V6.28125H959.159V55.3264H960.304C962.592 49.8304 966.116 45.4888 970.897 42.3219C975.719 39.104 981.848 37.5002 989.296 37.5002C996.068 37.5002 1001.96 38.9201 1007 41.7499C1012.04 44.5796 1015.93 48.7271 1018.68 54.1823C1021.46 59.6374 1022.86 66.298 1022.86 74.164V136.214H999.899V77.7191C999.899 71.1606 998.204 66.063 994.822 62.4263C991.482 58.7487 986.782 56.9098 980.735 56.9098C976.669 56.9098 973.042 57.7986 969.825 59.5761C966.658 61.3128 964.155 63.8258 962.336 67.1255C960.559 70.4251 959.67 74.4194 959.67 79.1186L959.66 79.1084Z" fill="black"/>
<path d="M1070.73 138.179C1064.56 138.179 1058.99 137.076 1054.04 134.879C1049.14 132.632 1045.25 129.342 1042.37 124.98C1039.54 120.628 1038.12 115.255 1038.12 108.87C1038.12 103.374 1039.13 98.8283 1041.16 95.2324C1043.19 91.6365 1045.96 88.7659 1049.48 86.6002C1052.99 84.4447 1056.94 82.8102 1061.34 81.7171C1065.78 80.573 1070.37 79.7455 1075.11 79.2449C1080.82 78.6524 1085.45 78.1212 1089 77.6615C1092.56 77.1507 1095.13 76.3948 1096.74 75.3732C1098.39 74.3108 1099.22 72.6865 1099.22 70.4901V70.1122C1099.22 65.3312 1097.8 61.6332 1094.97 59.0078C1092.14 56.3824 1088.05 55.0748 1082.72 55.0748C1077.09 55.0748 1072.64 56.3006 1069.34 58.7524C1066.08 61.2041 1063.88 64.1054 1062.74 67.4459L1041.29 64.4016C1042.99 58.4766 1045.78 53.5322 1049.67 49.5583C1053.56 45.5436 1058.32 42.5402 1063.94 40.5482C1069.57 38.5153 1075.78 37.5039 1082.6 37.5039C1087.3 37.5039 1091.96 38.0556 1096.61 39.1486C1101.26 40.2519 1105.52 42.0703 1109.36 44.6038C1113.21 47.0964 1116.3 50.5084 1118.63 54.8194C1121 59.1304 1122.18 64.5242 1122.18 71.0009V136.217H1100.11V122.835H1099.34C1097.94 125.542 1095.98 128.076 1093.43 130.446C1090.94 132.775 1087.79 134.654 1083.99 136.095C1080.23 137.494 1075.8 138.189 1070.73 138.189V138.179ZM1076.69 121.303C1081.3 121.303 1085.3 120.393 1088.68 118.575C1092.07 116.716 1094.67 114.264 1096.49 111.22C1098.35 108.176 1099.28 104.855 1099.28 101.26V89.7772C1098.56 90.3697 1097.34 90.9214 1095.6 91.4219C1093.9 91.9327 1092 92.372 1089.89 92.75C1087.78 93.128 1085.68 93.4651 1083.61 93.7613C1081.53 94.0576 1079.74 94.313 1078.21 94.5275C1074.79 94.9974 1071.72 95.7534 1069.02 96.8158C1066.31 97.8782 1064.18 99.3493 1062.61 101.26C1061.05 103.119 1060.26 105.53 1060.26 108.492C1060.26 112.722 1061.81 115.919 1064.89 118.074C1067.98 120.23 1071.91 121.313 1076.69 121.313V121.303Z" fill="black"/>
<path d="M1164.67 6.28125V136.214H1141.7V6.28125H1164.67Z" fill="black"/>
<path d="M1227.85 138.12C1218.09 138.12 1209.65 136.087 1202.55 132.031C1195.48 127.925 1190.04 122.132 1186.23 114.644C1182.42 107.116 1180.52 98.2586 1180.52 88.0634C1180.52 77.8682 1182.42 69.2462 1186.23 61.6662C1190.09 54.0556 1195.46 48.1306 1202.35 43.9013C1209.24 39.6312 1217.34 37.4961 1226.65 37.4961C1232.65 37.4961 1238.32 38.4666 1243.65 40.4178C1249.02 42.3179 1253.75 45.2804 1257.86 49.2951C1261.99 53.3099 1265.25 58.4279 1267.61 64.6492C1269.98 70.8194 1271.18 78.1849 1271.18 86.7252V93.7637H1191.3V78.2871H1249.16C1249.12 73.8841 1248.17 69.9715 1246.3 66.5493C1244.44 63.076 1241.85 60.3484 1238.51 58.3666C1235.21 56.3746 1231.36 55.3836 1226.95 55.3836C1222.25 55.3836 1218.14 56.5278 1214.58 58.8059C1211.03 61.0431 1208.27 64.0056 1206.28 67.6832C1204.33 71.32 1203.33 75.3143 1203.28 79.6764V93.1916C1203.28 98.8613 1204.32 103.724 1206.39 107.78C1208.46 111.794 1211.35 114.89 1215.08 117.045C1218.8 119.16 1223.16 120.222 1228.16 120.222C1231.5 120.222 1234.52 119.752 1237.23 118.823C1239.94 117.852 1242.29 116.432 1244.27 114.573C1246.26 112.714 1247.76 110.405 1248.77 107.657L1270.22 110.068C1268.86 115.738 1266.28 120.682 1262.47 124.911C1258.7 129.1 1253.89 132.358 1248.01 134.677C1242.13 136.966 1235.4 138.1 1227.83 138.1L1227.85 138.12Z" fill="black"/>
</g>
<defs>
<clipPath id="clip0_279_373">
<rect width="1271.16" height="172.756" fill="white"/>
</clipPath>
</defs>
</svg>
